<?xml version="1.0" standalone="no"?>
<!DOCTYPE svg PUBLIC "-//W3C//DTD SVG 20010904//EN"
 "http://www.w3.org/TR/2001/REC-SVG-20010904/DTD/svg10.dtd">
<svg version="1.0" xmlns="http://www.w3.org/2000/svg"
 width="700.000000pt" height="700.000000pt" viewBox="0 0 700.000000 700.000000"
 preserveAspectRatio="xMidYMid meet">
<metadata>
Created by potrace 1.14, written by Peter Selinger 2001-2017
</metadata>
<g transform="translate(0.000000,700.000000) scale(0.100000,-0.100000)"
fill="#000000" stroke="none">
<path d="M2606 6953 c-1 -1 -168 -3 -372 -4 -390 -1 -426 -5 -524 -51 -70 -34
-149 -121 -190 -210 l-35 -77 -465 -1 c-256 -1 -478 -4 -495 -6 -204 -31 -385
-191 -469 -415 -41 -109 -56 -210 -52 -349 3 -69 9 -150 15 -180 6 -30 14 -66
16 -80 2 -14 9 -50 16 -80 6 -30 13 -71 15 -90 3 -19 9 -48 14 -65 7 -24 21
-112 22 -135 0 -3 4 -14 8 -26 5 -11 11 -45 15 -75 4 -30 9 -57 11 -60 2 -4 6
-24 9 -45 4 -22 8 -46 10 -54 3 -8 14 -65 26 -125 11 -61 22 -121 25 -135 3
-14 20 -106 39 -205 19 -99 36 -189 39 -200 5 -24 46 -240 52 -275 42 -227 77
-370 104 -428 85 -183 263 -341 470 -419 132 -50 178 -53 845 -53 l620 0 39
-57 c39 -56 172 -225 230 -293 17 -19 88 -93 159 -165 l129 -130 -6 -80 c-6
-76 -11 -122 -21 -190 -2 -16 -7 -52 -11 -80 -3 -27 -8 -52 -9 -55 -2 -3 -6
-24 -9 -46 -9 -57 -11 -67 -41 -184 -55 -215 -111 -372 -200 -555 l-54 -110
-203 2 c-112 1 -230 -3 -263 -9 -135 -22 -269 -118 -325 -231 -37 -77 -38 -85
-39 -227 l-1 -116 -67 -1 c-38 0 -87 -6 -110 -12 -92 -25 -185 -115 -204 -199
-4 -20 -7 -75 -5 -123 4 -139 50 -204 164 -235 37 -10 454 -12 2017 -11 1948
2 1970 2 2009 22 73 37 81 58 83 212 1 157 -10 201 -69 268 -52 59 -100 76
-220 78 l-98 1 -1 121 c-1 136 -3 153 -26 215 -41 113 -139 206 -248 235 -16
5 -150 9 -297 10 -148 1 -269 3 -271 6 -11 14 -116 241 -127 274 -7 22 -19 52
-26 66 -12 23 -81 240 -89 279 -1 8 -8 33 -14 55 -30 112 -66 331 -86 523 -5
52 -4 54 32 85 56 47 261 254 313 316 25 29 55 65 68 80 12 14 62 79 110 143
l87 118 625 1 c344 1 634 3 645 4 275 34 521 204 648 450 21 40 46 107 52 135
1 3 5 25 9 50 5 25 10 54 12 65 2 11 11 58 19 105 14 82 19 107 30 160 2 14 7
41 10 60 3 19 15 87 26 150 11 63 22 126 24 140 3 14 7 36 10 50 2 14 7 39 10
55 22 131 37 214 41 235 2 14 7 41 10 60 4 29 11 67 19 100 1 3 5 30 9 60 5
30 10 64 12 75 3 11 7 35 10 54 3 18 7 41 9 50 11 60 35 192 40 221 3 19 7 46
10 60 3 14 7 41 10 60 3 19 13 74 21 121 12 65 15 131 11 260 -2 96 -6 183 -9
194 -4 11 -9 34 -13 50 -14 55 -93 209 -133 257 -87 104 -190 171 -309 202
-51 13 -135 16 -516 16 l-454 0 -32 64 c-79 161 -216 246 -436 272 -52 7
-2483 13 -2489 7z m-1218 -1141 c-1 -229 7 -362 32 -497 5 -27 12 -66 15 -85
16 -96 90 -375 143 -535 96 -292 197 -534 347 -833 45 -90 79 -164 76 -166 -3
-1 -154 -2 -336 -1 -221 1 -344 5 -372 13 -62 18 -148 80 -193 141 -64 85 -86
144 -125 336 -22 107 -79 378 -91 430 -2 11 -7 34 -10 50 -2 17 -9 46 -14 65
-5 19 -11 46 -14 60 -3 14 -14 66 -25 115 -34 153 -82 379 -87 405 -3 14 -9
39 -14 55 -36 116 -54 319 -36 415 11 59 55 138 97 174 77 65 115 73 376 74
l233 1 -2 -217z m4769 189 c116 -51 174 -159 176 -326 1 -113 -1 -130 -42
-312 -17 -72 -32 -142 -35 -155 -2 -12 -25 -117 -51 -233 -26 -115 -49 -221
-51 -235 -3 -14 -16 -77 -30 -140 -32 -144 -25 -111 -73 -344 -53 -255 -64
-292 -110 -363 -54 -83 -106 -131 -181 -167 l-65 -30 -320 -1 c-176 -1 -323 0
-327 2 -4 2 26 69 66 148 71 138 198 417 229 501 21 55 56 145 66 169 31 70
122 365 157 505 12 50 43 190 47 215 29 171 30 179 42 310 5 58 9 425 4 452
-6 33 -2 34 224 30 206 -3 226 -5 274 -26z"/>
</g>
</svg>
